<?xml version="1.0" encoding="UTF-8"?>
<svg width="21px" height="21px" viewBox="0 0 21 21" version="1.1" xmlns="http://www.w3.org/2000/svg" xmlns:xlink="http://www.w3.org/1999/xlink">
    <!-- Generator: Sketch 51.3 (57544) - http://www.bohemiancoding.com/sketch -->
    <title>Microsoft Edge Insider Copy 2</title>
    <desc>Created with Sketch.</desc>
    <defs></defs>
    <g id="Icons" stroke="none" stroke-width="1" fill="none" fill-rule="evenodd">
        <g id="Artboard-6" transform="translate(-61.000000, -60.000000)" fill="#B5B8BD" fill-rule="nonzero">
            <g id="Microsoft-Edge-Insider-Copy-2" transform="translate(61.000000, 60.000000)">
                <path d="M13.1632398,10.4367722 C13.1630785,10.437412 13.1629961,10.4377887 13.1629961,10.4378988 C13.162867,10.4287732 13.1626901,10.4196522 13.1624654,10.4105361 C13.161541,10.3820628 13.160296,10.3519907 13.1586841,10.3204469 C13.1285136,9.81186234 12.9497517,9.322315 12.6433074,8.91315175 C12.1484007,8.25003608 11.3715414,7.8569193 10.5441245,7.85089494 C9.96478599,7.84027237 9.5292607,8.05762646 9.27431907,8.17774319 C8.45550244,8.62336764 7.94186951,9.47712998 7.93178988,10.4092996 C7.93178988,13.8224125 11.2999611,16.4821401 15.1665759,16.4821401 C16.1681914,16.4841098 17.1619401,16.3052904 18.1000389,15.9542802 C18.3947559,15.8438105 18.682383,15.7152788 18.961284,15.5694163 C19.0919526,15.4968109 19.2552265,15.5221072 19.3577986,15.630849 C19.4603707,15.7395908 19.4760978,15.9040626 19.3959922,16.0302724 C18.1246408,18.0447431 16.2053357,19.5663543 13.9539689,20.3446693 L13.8469261,20.3806226 C13.6448413,20.4444091 13.3962544,20.5085856 13.1307644,20.5652724 C13.3747956,20.5198094 13.6172271,20.4594054 13.8567315,20.3838911 C8.82300399,22.0618502 3.33039153,19.7047123 1.07859922,14.9001946 C0.412950971,13.4673418 0.0749168297,11.9041781 0.0890661479,10.3243191 C0.0890661479,10.101536 0.105480005,9.87642952 0.137347879,9.65058593 C0.102443151,9.86732837 0.0830201302,10.088079 0.080077821,10.3120623 C0.160507852,4.59315694 4.81975095,-0.000565551421 10.5392218,0 C14.6035798,0 18.3410895,1.94801556 20.0725681,5.33498054 C20.3454864,5.87428016 21.020428,7.09178988 20.9991829,8.9229572 C20.9955373,10.7023764 20.0493361,12.3466459 18.5126848,13.2438911 C17.7640845,13.6884764 16.9099238,13.9240972 16.0392607,13.9261868 C16.0335409,13.9261868 13.8183268,14.0340467 12.6433074,13.2169261 C12.396537,13.0445136 12.2576265,12.8394163 12.2576265,12.6261479 C12.2576265,12.3679377 12.4610895,12.2494553 12.5272763,12.1636576 C12.9407393,11.6259922 13.1646304,10.9755642 13.1646304,10.5367704 C13.1646304,10.5064948 13.1642024,10.4730643 13.1632398,10.4367722 Z" id="Shape"></path>
            </g>
        </g>
    </g>
</svg>