<?xml version="1.0" encoding="UTF-8"?>
<svg width="21px" height="21px" viewBox="0 0 21 21" version="1.1" xmlns="http://www.w3.org/2000/svg" xmlns:xlink="http://www.w3.org/1999/xlink">
    <!-- Generator: Sketch 51.3 (57544) - http://www.bohemiancoding.com/sketch -->
    <title>Microsoft Edge Insider</title>
    <desc>Created with Sketch.</desc>
    <defs>
        <linearGradient x1="-7.97051215e-15%" y1="50.0129955%" x2="100.026435%" y2="50.0129955%" id="linearGradient-1">
            <stop stop-color="#0C59A4" offset="0%"></stop>
            <stop stop-color="#114A8B" offset="100%"></stop>
        </linearGradient>
        <radialGradient cx="55.2461807%" cy="50.9262508%" fx="55.2461807%" fy="50.9262508%" r="61.9753086%" gradientTransform="translate(0.552462,0.509263),scale(0.863187,1.000000),translate(-0.552462,-0.509263)" id="radialGradient-2">
            <stop stop-color="#000000" stop-opacity="0" offset="72%"></stop>
            <stop stop-color="#000000" stop-opacity="0.53" offset="95%"></stop>
            <stop stop-color="#000000" offset="100%"></stop>
        </radialGradient>
        <linearGradient x1="90.5872701%" y1="24.7942842%" x2="24.4785698%" y2="83.1510351%" id="linearGradient-3">
            <stop stop-color="#1B9DE2" offset="0%"></stop>
            <stop stop-color="#1595DF" offset="16%"></stop>
            <stop stop-color="#0680D7" offset="67%"></stop>
            <stop stop-color="#0078D4" offset="100%"></stop>
        </linearGradient>
        <radialGradient cx="51.5261383%" cy="20.7274079%" fx="51.5261383%" fy="20.7274079%" r="105.641453%" gradientTransform="translate(0.515261,0.207274),scale(1.000000,0.810421),rotate(-72.277194),scale(1.000000,2.464105),translate(-0.515261,-0.207274)" id="radialGradient-4">
            <stop stop-color="#000000" stop-opacity="0" offset="0%"></stop>
            <stop stop-color="#000000" stop-opacity="0.5" offset="95%"></stop>
            <stop stop-color="#000000" offset="100%"></stop>
        </radialGradient>
        <radialGradient cx="10.1019077%" cy="27.7890034%" fx="10.1019077%" fy="27.7890034%" r="118.830871%" gradientTransform="translate(0.101019,0.277890),scale(0.665925,1.000000),rotate(92.290610),translate(-0.101019,-0.277890)" id="radialGradient-5">
            <stop stop-color="#35C1F1" offset="0%"></stop>
            <stop stop-color="#34C1ED" offset="11%"></stop>
            <stop stop-color="#2FC2DF" offset="23%"></stop>
            <stop stop-color="#2BC3D2" offset="31%"></stop>
            <stop stop-color="#36C752" offset="67%"></stop>
        </radialGradient>
        <radialGradient cx="93.7723426%" cy="45.4027789%" fx="93.7723426%" fy="45.4027789%" r="57.0950674%" gradientTransform="translate(0.937723,0.454028),scale(0.665925,1.000000),rotate(73.739795),translate(-0.937723,-0.454028)" id="radialGradient-6">
            <stop stop-color="#66EB6E" offset="0%"></stop>
            <stop stop-color="#66EB6E" stop-opacity="0" offset="100%"></stop>
        </radialGradient>
    </defs>
    <g id="Icons" stroke="none" stroke-width="1" fill="none" fill-rule="evenodd">
        <g transform="translate(-443.000000, -129.000000)" fill-rule="nonzero" id="Microsoft-Edge-Insider">
            <g transform="translate(443.000000, 129.000000)">
                <path d="M18.961284,15.5694163 C18.682383,15.7152788 18.3947559,15.8438105 18.1000389,15.9542802 C17.1619401,16.3052904 16.1681914,16.4841098 15.1665759,16.4821401 C11.2999611,16.4821401 7.93178988,13.8224125 7.93178988,10.4092996 C7.94186951,9.47712998 8.45550244,8.62336764 9.27431907,8.17774319 C5.7770428,8.3248249 4.87821012,11.9691829 4.87821012,14.1043191 C4.87821012,20.1412062 10.4419844,20.7532296 11.6407004,20.7532296 C12.2870428,20.7532296 13.2618677,20.5652918 13.8469261,20.3806226 L13.9539689,20.3446693 C16.2053357,19.5663543 18.1246408,18.0447431 19.3959922,16.0302724 C19.4760978,15.9040626 19.4603707,15.7395908 19.3577986,15.630849 C19.2552265,15.5221072 19.0919526,15.4968109 18.961284,15.5694163 Z" id="Shape" fill="url(#linearGradient-1)"></path>
                <path d="M18.961284,15.5694163 C18.682383,15.7152788 18.3947559,15.8438105 18.1000389,15.9542802 C17.1619401,16.3052904 16.1681914,16.4841098 15.1665759,16.4821401 C11.2999611,16.4821401 7.93178988,13.8224125 7.93178988,10.4092996 C7.94186951,9.47712998 8.45550244,8.62336764 9.27431907,8.17774319 C5.7770428,8.3248249 4.87821012,11.9691829 4.87821012,14.1043191 C4.87821012,20.1412062 10.4419844,20.7532296 11.6407004,20.7532296 C12.2870428,20.7532296 13.2618677,20.5652918 13.8469261,20.3806226 L13.9539689,20.3446693 C16.2053357,19.5663543 18.1246408,18.0447431 19.3959922,16.0302724 C19.4760978,15.9040626 19.4603707,15.7395908 19.3577986,15.630849 C19.2552265,15.5221072 19.0919526,15.4968109 18.961284,15.5694163 Z" id="Shape" fill="url(#radialGradient-2)" opacity="0.35"></path>
                <path d="M8.71949416,19.7269261 C7.99067422,19.27457 7.35905492,18.6818366 6.86136187,17.9831907 C5.71310645,16.4100039 5.31885118,14.4097592 5.78425496,12.5185146 C6.24965875,10.6272699 7.52713285,9.03841 9.27431907,8.17774319 C9.5292607,8.05762646 9.96478599,7.84027237 10.5441245,7.85089494 C11.3715414,7.8569193 12.1484007,8.25003608 12.6433074,8.91315175 C12.9732796,9.35372941 13.1552107,9.88750832 13.1629961,10.4378988 C13.1629961,10.4207393 15.1616732,3.93361868 6.62603113,3.93361868 C3.0388716,3.93361868 0.0890661479,7.33774319 0.0890661479,10.3243191 C0.0749168297,11.9041781 0.412950971,13.4673418 1.07859922,14.9001946 C3.33039153,19.7047123 8.82300399,22.0618502 13.8567315,20.3838911 C12.1335038,20.9272145 10.2587482,20.6883161 8.72684825,19.7301946 L8.71949416,19.7269261 Z" id="Shape" fill="url(#linearGradient-3)"></path>
                <path d="M8.71949416,19.7269261 C7.99067422,19.27457 7.35905492,18.6818366 6.86136187,17.9831907 C5.71310645,16.4100039 5.31885118,14.4097592 5.78425496,12.5185146 C6.24965875,10.6272699 7.52713285,9.03841 9.27431907,8.17774319 C9.5292607,8.05762646 9.96478599,7.84027237 10.5441245,7.85089494 C11.3715414,7.8569193 12.1484007,8.25003608 12.6433074,8.91315175 C12.9732796,9.35372941 13.1552107,9.88750832 13.1629961,10.4378988 C13.1629961,10.4207393 15.1616732,3.93361868 6.62603113,3.93361868 C3.0388716,3.93361868 0.0890661479,7.33774319 0.0890661479,10.3243191 C0.0749168297,11.9041781 0.412950971,13.4673418 1.07859922,14.9001946 C3.33039153,19.7047123 8.82300399,22.0618502 13.8567315,20.3838911 C12.1335038,20.9272145 10.2587482,20.6883161 8.72684825,19.7301946 L8.71949416,19.7269261 Z" id="Shape" fill="url(#radialGradient-4)" opacity="0.41"></path>
                <path d="M12.5272763,12.1636576 C12.4610895,12.2494553 12.2576265,12.3679377 12.2576265,12.6261479 C12.2576265,12.8394163 12.396537,13.0445136 12.6433074,13.2169261 C13.8183268,14.0340467 16.0335409,13.9261868 16.0392607,13.9261868 C16.9099238,13.9240972 17.7640845,13.6884764 18.5126848,13.2438911 C20.0493361,12.3466459 20.9955373,10.7023764 20.9991829,8.9229572 C21.020428,7.09178988 20.3454864,5.87428016 20.0725681,5.33498054 C18.3410895,1.94801556 14.6035798,0 10.5392218,0 C4.81975095,-0.000565551421 0.160507852,4.59315694 0.080077821,10.3120623 C0.119299611,7.3263035 3.08708171,4.91498054 6.6170428,4.91498054 C6.90303502,4.91498054 8.53400778,4.94276265 10.0489494,5.73782101 C11.3841245,6.43891051 12.0835798,7.28544747 12.5697665,8.12463035 C13.0747471,8.99649805 13.1646304,10.0979767 13.1646304,10.5367704 C13.1646304,10.9755642 12.9407393,11.6259922 12.5272763,12.1636576 Z" id="Shape" fill="url(#radialGradient-5)"></path>
                <path d="M12.5272763,12.1636576 C12.4610895,12.2494553 12.2576265,12.3679377 12.2576265,12.6261479 C12.2576265,12.8394163 12.396537,13.0445136 12.6433074,13.2169261 C13.8183268,14.0340467 16.0335409,13.9261868 16.0392607,13.9261868 C16.9099238,13.9240972 17.7640845,13.6884764 18.5126848,13.2438911 C20.0493361,12.3466459 20.9955373,10.7023764 20.9991829,8.9229572 C21.020428,7.09178988 20.3454864,5.87428016 20.0725681,5.33498054 C18.3410895,1.94801556 14.6035798,0 10.5392218,0 C4.81975095,-0.000565551421 0.160507852,4.59315694 0.080077821,10.3120623 C0.119299611,7.3263035 3.08708171,4.91498054 6.6170428,4.91498054 C6.90303502,4.91498054 8.53400778,4.94276265 10.0489494,5.73782101 C11.3841245,6.43891051 12.0835798,7.28544747 12.5697665,8.12463035 C13.0747471,8.99649805 13.1646304,10.0979767 13.1646304,10.5367704 C13.1646304,10.9755642 12.9407393,11.6259922 12.5272763,12.1636576 Z" id="Shape" fill="url(#radialGradient-6)"></path>
            </g>
        </g>
    </g>
</svg>