<?xml version="1.0" encoding="UTF-8"?>
<svg width="126px" height="128px" viewBox="0 0 126 128" version="1.1" xmlns="http://www.w3.org/2000/svg" xmlns:xlink="http://www.w3.org/1999/xlink">
    <!-- Generator: Sketch 51.2 (57519) - http://www.bohemiancoding.com/sketch -->
    <title>Artboard 3</title>
    <desc>Created with Sketch.</desc>
    <defs></defs>
    <g id="Artboard-3" stroke="none" stroke-width="1" fill="none" fill-rule="evenodd">
        <path d="M77.2986501,37.8511569 L77.9974753,38.2454536 C78.0423581,38.2715154 82.3524534,40.7640096 90.9277611,45.7229362 L91.6252398,46.121951 C92.0641936,46.3760533 92.4062006,46.7312573 92.6391423,47.1410563 C92.8767967,47.5602914 93.0013465,48.0388395 92.997307,48.5248017 L93,68.5759201 L87.5124045,65.4033483 L87.5124045,50.077724 L75.3839499,43.0673313 C75.3377206,43.0444149 75.06416,42.8878196 74.5632679,42.5975453 L63.0003366,35.9039379 L50.9203555,42.8853482 C50.7971522,42.9662296 50.7614704,42.9891459 50.7432928,42.9992561 L50.0458141,43.402989 L38.4882688,50.077724 L38.4882688,64.2542061 L38.4882688,78.4300142 L50.6160501,85.439733 C50.6384915,85.4509665 50.9120522,85.6077865 51.4367321,85.9101929 L56.5614502,88.8825833 L56.9680883,89.1184873 L56.9680883,89.5801851 L56.9680883,94.0387706 L56.9680883,95.4346483 L55.7609654,94.7363724 L48.7020231,90.6565813 L48.0031979,90.2622846 C47.9596616,90.2375709 43.6493419,87.7450767 35.0722389,82.784802 L34.3754334,82.3851132 C33.9364796,82.1316849 33.5937994,81.7758069 33.361531,81.367356 C33.1232033,80.9467729 32.9986535,80.4688988 33.0033662,79.9836105 L33,64.2542061 L33,48.4991893 C33,47.9707643 33.1534992,47.4719959 33.4194298,47.0473687 C33.6887266,46.6112833 34.076514,46.2587753 34.5363382,46.0329815 L47.3057192,38.6518825 L47.9998317,38.2454536 C48.0249661,38.2306253 48.2572345,38.0980698 48.6966372,37.8477869 L60.9361767,30.7801031 L61.6309624,30.3682822 C62.1035783,30.0959816 62.6219746,29.9793776 63.1282526,30.002968 C63.6419362,30.0279064 64.1435015,30.1970833 64.5689905,30.4936483 L77.2986501,37.8511569 Z M56.5782812,56.7356088 L87.5124045,74.6137616 L87.5124045,69.9531501 L93,73.1142636 L93,77.0334626 L93,78.4239481 L90.2888545,81.2035712 C89.9071263,81.6915555 89.3214057,82.0548476 88.8393645,81.7771549 L65.8676743,68.4586893 L65.8683475,93.8952062 C65.8905645,94.1547006 65.788905,94.4202611 65.5714478,94.595504 L65.0638233,93.9679994 L65.5680816,94.595504 L61.7211768,97.7114588 C61.5764298,97.8455871 61.3832093,97.9278165 61.1704649,97.9278165 C60.7247787,97.9278165 60.3632477,97.5658724 60.3632477,97.1196768 L60.3666139,65.2813995 L55.2129464,62.3022691 L52.4876628,63.8781078 C52.474198,63.8875439 51.9113677,64.2133161 50.7991719,64.8554243 C50.368297,65.1075046 49.8748107,64.9767464 49.6512943,64.5912118 L50.348773,64.185457 L49.6526408,64.5891898 L48.6831723,62.9183155 L47.7238025,61.2636175 C47.4706635,60.8268581 47.6032922,60.3334817 47.9890598,60.1103839 L48.3923318,60.8106818 L47.9917528,60.11308 L49.6735113,59.1431776 L53.8556906,56.7356088 L54.7511024,56.219316 C55.000202,56.042051 55.3401892,56.0157646 55.6216043,56.1782013 L56.5782812,56.7356088 Z" id="Fill-1" stroke="#0EBAC5" stroke-width="0.72" fill="#0EBAC5"></path>
    </g>
</svg>